<svg xmlns="http://www.w3.org/2000/svg" version="1.1" xmlns:xlink="http://www.w3.org/1999/xlink" width="1500" height="399" viewBox="0 0 1500 399">
  <svg xml:space="preserve" width="1500" height="399" data-version="2" data-id="lg_k3LoDAeIaBXJkE6fW8" viewBox="0 0 557 399" x="0" y="0">
    <rect width="100%" height="100%" fill="transparent"></rect>
    <path fill="#fff" d="M5.695 393.091v-76.38h8.88v76.38Z"></path>
    <rect width="8.88" height="76.38" x="-4.44" y="-38.19" fill="none" rx="0" ry="0" transform="translate(10.63 355.4)">
    </rect><path fill="#fff" d="m83.485 393.091-9.4-24.24h-30.62l-9.35 24.24h-8.99l29.89-76.7h7.99l29.68 76.7Zm-12.07-32.13-8.93-24.09q-.32-.94-1.02-3.08-.71-2.14-1.44-4.44-.73-2.3-1.2-3.71-.52 2.14-1.12 4.26-.6 2.12-1.18 3.92-.57 1.8-.99 3.05l-9.09 24.09Z"></path><rect width="67.56" height="76.7" x="-33.78" y="-38.35" fill="none" rx="0" ry="0" transform="translate(59.4 355.24)"></rect>
    <path fill="#fff" d="M163.895 354.171q0 12.9-4.7 21.55-4.71 8.65-13.61 13.01-8.91 4.36-21.61 4.36h-20.74v-76.38h23.04q11.65 0 20.06 4.26 8.41 4.25 12.99 12.59 4.57 8.33 4.57 20.61m-9.35.31q0-10.29-3.43-16.98-3.42-6.69-10.03-9.95-6.61-3.27-16.17-3.27h-12.8v61.18h10.82q15.78 0 23.69-7.78 7.92-7.79 7.92-23.2"></path>
    <rect width="60.66" height="76.38" x="-30.33" y="-38.19" fill="none" rx="0" ry="0" transform="translate(134.06 355.4)"></rect>
    <path fill="#fff" d="M208.665 316.711h21.63q14.32 0 21.53 4.28 7.21 4.29 7.21 14.58 0 4.44-1.7 7.97-1.7 3.52-4.94 5.82-3.24 2.3-7.99 3.19v.52q5.01.78 8.88 2.87 3.87 2.09 6.06 5.86 2.2 3.76 2.2 9.56 0 7.05-3.27 11.91-3.26 4.86-9.22 7.34-5.96 2.48-14.11 2.48h-26.28Zm8.88 32.76h14.63q9.98 0 13.82-3.3 3.84-3.29 3.84-9.61 0-6.53-4.57-9.4-4.57-2.88-14.55-2.88h-13.17Zm0 7.47v28.58h15.89q10.19 0 14.42-4t4.23-10.79q0-4.34-1.91-7.42-1.9-3.08-6.16-4.73-4.26-1.64-11.37-1.64Z"></path>
    <rect width="52.88" height="76.38" x="-26.44" y="-38.19" fill="none" rx="0" ry="0" transform="translate(235.6 355.4)"></rect>
    <path fill="#fff" d="M344.035 354.791q0 8.83-2.24 16.07-2.25 7.24-6.67 12.44-4.41 5.19-10.94 8.01-6.53 2.83-15.15 2.83-8.88 0-15.49-2.83-6.61-2.82-10.98-8.04-4.36-5.23-6.53-12.49-2.16-7.26-2.16-16.09 0-11.7 3.86-20.53 3.87-8.83 11.73-13.74t19.72-4.91q11.34 0 19.1 4.85 7.76 4.86 11.76 13.67 3.99 8.8 3.99 20.76m-60.81 0q0 9.72 2.77 16.83 2.77 7.1 8.49 10.97 5.72 3.87 14.55 3.87 8.88 0 14.55-3.87t8.38-10.97q2.72-7.11 2.72-16.83 0-14.78-6.19-23.11-6.19-8.34-19.31-8.34-8.88 0-14.62 3.82-5.75 3.81-8.55 10.84-2.79 7.02-2.79 16.79"></path>
    <rect width="70.16" height="78.63" x="-35.08" y="-39.31" fill="none" rx="0" ry="0" transform="translate(309.45 355.33)"></rect>
    <path fill="#fff" d="M427.265 354.791q0 8.83-2.25 16.07-2.24 7.24-6.66 12.44-4.41 5.19-10.94 8.01-6.53 2.83-15.15 2.83-8.89 0-15.5-2.83-6.6-2.82-10.97-8.04-4.36-5.23-6.53-12.49t-2.17-16.09q0-11.7 3.87-20.53 3.87-8.83 11.73-13.74t19.72-4.91q11.34 0 19.1 4.85 7.76 4.86 11.75 13.67 4 8.8 4 20.76m-60.81 0q0 9.72 2.77 16.83 2.76 7.1 8.49 10.97 5.72 3.87 14.55 3.87 8.88 0 14.55-3.87 5.66-3.87 8.38-10.97 2.72-7.11 2.72-16.83 0-14.78-6.19-23.11-6.19-8.34-19.31-8.34-8.88 0-14.63 3.82-5.74 3.81-8.54 10.84-2.79 7.02-2.79 16.79"></path>
    <rect width="70.17" height="78.63" x="-35.09" y="-39.31" fill="none" rx="0" ry="0" transform="translate(392.68 355.33)"></rect>
    <path fill="#fff" d="M487.345 372.771q0 6.79-3.37 11.57t-9.43 7.29q-6.06 2.51-14.26 2.51-4.34 0-8.2-.42-3.87-.42-7.11-1.2-3.24-.79-5.69-1.94v-8.51q3.92 1.62 9.56 3 5.64 1.39 11.81 1.39 5.74 0 9.71-1.55 3.97-1.54 6.04-4.44 2.06-2.9 2.06-6.97 0-3.92-1.72-6.56-1.73-2.64-5.72-4.8-4-2.17-10.9-4.63-4.86-1.72-8.57-3.79-3.7-2.06-6.21-4.67t-3.79-6.06q-1.28-3.45-1.28-7.89 0-6.11 3.11-10.48 3.11-4.36 8.62-6.68 5.51-2.33 12.67-2.33 6.11 0 11.31 1.15t9.53 3.08l-2.76 7.63q-4.13-1.72-8.76-2.87-4.62-1.15-9.53-1.15-4.91 0-8.28 1.43-3.37 1.44-5.15 4.05-1.77 2.62-1.77 6.22 0 4.02 1.69 6.69 1.7 2.66 5.44 4.73 3.73 2.06 9.9 4.31 6.74 2.45 11.44 5.19 4.7 2.75 7.16 6.69 2.45 3.95 2.45 10.01"></path>
    <rect width="48.06" height="78.53" x="-24.03" y="-39.27" fill="none" rx="0" ry="0" transform="translate(463.81 355.38)"></rect>
    <path fill="#fff" d="M526.375 393.091h-8.93v-68.55h-24.04v-7.83h56.9v7.83h-23.93Z"></path>
    <rect width="56.9" height="76.38" x="-28.45" y="-38.19" fill="none" rx="0" ry="0" transform="translate(522.36 355.4)"></rect>
    <circle r="95.43" fill="#31283a" transform="translate(273.86 134.69)scale(1.3638)"></circle>
    <path fill="#f3bae0" d="m274.033 58.272-66.322 38.292v76.581l66.322 38.289 66.322-38.289v-76.58zm49.803 46.268-48.052-27.743V63.328l59.366 34.275zm-49.803 46.691-12.627-7.289v-14.581l12.627-7.29 12.625 7.288v14.581zm-1.751-32.196L260.6 125.78l-13.84-8.188 25.52-14.733zm-14.378 9.22v15.104l-14.01 7.795v-31.19zm1.24 18.425 13.138 7.583v16.178l-27.408-15.823zm16.64 7.583 13.139-7.585 14.27 7.94-27.409 15.823zm14.377-10.907v-15.29l.55.9 13.462-8.256v30.442zm-1.279-17.375.587.958-13.685-7.902V102.86l26.165 15.105zm-16.6-27.166-28.98 16.73-15.374-9.096 44.354-25.608zm-31.891 19.077v35.213l-14.01 7.795v-51.297zm.915 38.712 30.976 17.88v14.383l-43.658-25.207zm34.478 17.88 30.976-17.882 12.684 7.058-43.66 25.207zm31.891-21.38v-34.542l14.01-8.593v50.93zm-2.33-37.221-29.56-17.067V80.841l44.657 25.783zm-33.063-39.087L224.469 104.4l-11.521-6.817 59.334-34.256zm-49.404 30.733v55.32l-11.664 6.489v-68.709zm2.178 58.117 47.226 27.263v13.469l-59.105-34.122zm50.728 27.263 47.226-27.265 11.879 6.612-59.105 34.124zm49.404-30.061V107.82l11.664-7.154v68.672z"></path>
  </svg>
</svg>
