<svg xmlns="http://www.w3.org/2000/svg" xml:space="preserve" width="192" height="192" data-version="2">
    <path fill="#fff" d="M111.04 150.97V41.03h12.78v109.94Z" paint-order="stroke"/>
    <rect width="12.78" height="109.94" x="-6.39" y="-54.97" fill="none" rx="0" ry="0" transform="translate(117.93 96.5)"/>
    <path fill="#fff" d="M138.49 41.03h31.13q20.61 0 30.98 6.17 10.38 6.16 10.38 20.98 0 6.39-2.44 11.46-2.45 5.08-7.11 8.39-4.66 3.31-11.5 4.59v.75q7.22 1.13 12.78 4.13 5.56 3.01 8.72 8.43 3.16 5.41 3.16 13.76 0 10.15-4.7 17.14t-13.27 10.57q-8.57 3.57-20.3 3.57h-37.83Zm12.79 47.15h21.05q14.36 0 19.89-4.74 5.53-4.74 5.53-13.83 0-9.4-6.58-13.54-6.58-4.13-20.94-4.13h-18.95Zm0 10.75v41.13h22.86q14.66 0 20.75-5.75t6.09-15.53q0-6.24-2.74-10.67-2.75-4.44-8.88-6.81-6.13-2.37-16.35-2.37Z" paint-order="stroke"/>
    <rect width="76.1" height="109.94" x="-38.05" y="-54.97" fill="none" rx="0" ry="0" transform="translate(177.04 96.5)"/>
</svg>
